<svg xmlns="http://www.w3.org/2000/svg" width="138" height="138" viewBox="0 0 138 138" fill="none">
  <path d="M6.46875 47.4375C8.18379 47.4356 9.82806 46.7535 11.0408 45.5408C12.2535 44.3281 12.9356 42.6838 12.9375 40.9688V12.9375H40.9688C42.6844 12.9375 44.3297 12.256 45.5428 11.0428C46.756 9.82972 47.4375 8.18437 47.4375 6.46875C47.4375 4.75313 46.756 3.10778 45.5428 1.89465C44.3297 0.681527 42.6844 2.55647e-08 40.9688 0H10.7812C7.92291 0.00335549 5.18261 1.14031 3.16146 3.16146C1.14031 5.18261 0.00335549 7.92291 0 10.7812V40.9688C0.00187205 42.6838 0.684001 44.3281 1.89672 45.5408C3.10944 46.7535 4.75371 47.4356 6.46875 47.4375ZM4.3125 10.7812C4.31437 9.06621 4.9965 7.42194 6.20922 6.20922C7.42194 4.9965 9.06621 4.31437 10.7812 4.3125H40.9688C41.5406 4.3125 42.0891 4.53968 42.4935 4.94405C42.8978 5.34843 43.125 5.89688 43.125 6.46875C43.125 7.04062 42.8978 7.58907 42.4935 7.99345C42.0891 8.39782 41.5406 8.625 40.9688 8.625H12.9375C11.7942 8.62631 10.698 9.08108 9.88955 9.88955C9.08108 10.698 8.62631 11.7942 8.625 12.9375V40.9688C8.625 41.5406 8.39782 42.0891 7.99345 42.4935C7.58907 42.8978 7.04062 43.125 6.46875 43.125C5.89688 43.125 5.34843 42.8978 4.94405 42.4935C4.53968 42.0891 4.3125 41.5406 4.3125 40.9688V10.7812Z" fill="#011126"/>
  <path d="M127.219 0H97.0312C95.3156 2.55647e-08 93.6703 0.681527 92.4572 1.89465C91.244 3.10778 90.5625 4.75313 90.5625 6.46875C90.5625 8.18437 91.244 9.82972 92.4572 11.0428C93.6703 12.256 95.3156 12.9375 97.0312 12.9375H125.062V40.9688C125.062 42.6844 125.744 44.3297 126.957 45.5428C128.17 46.756 129.816 47.4375 131.531 47.4375C133.247 47.4375 134.892 46.756 136.105 45.5428C137.318 44.3297 138 42.6844 138 40.9688V10.7812C137.997 7.92291 136.86 5.18261 134.839 3.16146C132.817 1.14031 130.077 0.00335549 127.219 0ZM133.688 40.9688C133.688 41.5406 133.46 42.0891 133.056 42.4935C132.652 42.8978 132.103 43.125 131.531 43.125C130.959 43.125 130.411 42.8978 130.007 42.4935C129.602 42.0891 129.375 41.5406 129.375 40.9688V12.9375C129.374 11.7942 128.919 10.698 128.11 9.88955C127.302 9.08108 126.206 8.62631 125.062 8.625H97.0312C96.4594 8.625 95.9109 8.39782 95.5065 7.99345C95.1022 7.58907 94.875 7.04062 94.875 6.46875C94.875 5.89688 95.1022 5.34843 95.5065 4.94405C95.9109 4.53968 96.4594 4.3125 97.0312 4.3125H127.219C128.934 4.31437 130.578 4.9965 131.791 6.20922C133.003 7.42194 133.686 9.06621 133.688 10.7812V40.9688Z" fill="#011126"/>
  <path d="M131.531 90.5625C129.816 90.5644 128.172 91.2465 126.959 92.4592C125.747 93.6719 125.064 95.3162 125.062 97.0312V125.062H97.0312C95.3156 125.062 93.6703 125.744 92.4572 126.957C91.244 128.17 90.5625 129.816 90.5625 131.531C90.5625 133.247 91.244 134.892 92.4572 136.105C93.6703 137.318 95.3156 138 97.0312 138H127.219C130.077 137.997 132.817 136.86 134.839 134.839C136.86 132.817 137.997 130.077 138 127.219V97.0312C137.998 95.3162 137.316 93.6719 136.103 92.4592C134.891 91.2465 133.246 90.5644 131.531 90.5625ZM133.688 127.219C133.686 128.934 133.003 130.578 131.791 131.791C130.578 133.003 128.934 133.686 127.219 133.688H97.0312C96.4594 133.688 95.9109 133.46 95.5065 133.056C95.1022 132.652 94.875 132.103 94.875 131.531C94.875 130.959 95.1022 130.411 95.5065 130.007C95.9109 129.602 96.4594 129.375 97.0312 129.375H125.062C126.206 129.374 127.302 128.919 128.11 128.11C128.919 127.302 129.374 126.206 129.375 125.062V97.0312C129.375 96.4594 129.602 95.9109 130.007 95.5065C130.411 95.1022 130.959 94.875 131.531 94.875C132.103 94.875 132.652 95.1022 133.056 95.5065C133.46 95.9109 133.688 96.4594 133.688 97.0312V127.219Z" fill="#011126"/>
  <path d="M40.9688 125.062H12.9375V97.0312C12.9375 95.3156 12.256 93.6703 11.0428 92.4572C9.82972 91.244 8.18437 90.5625 6.46875 90.5625C4.75313 90.5625 3.10778 91.244 1.89465 92.4572C0.681527 93.6703 2.55647e-08 95.3156 0 97.0312V127.219C0.00335549 130.077 1.14031 132.817 3.16146 134.839C5.18261 136.86 7.92291 137.997 10.7812 138H40.9688C42.6844 138 44.3297 137.318 45.5428 136.105C46.756 134.892 47.4375 133.247 47.4375 131.531C47.4375 129.816 46.756 128.17 45.5428 126.957C44.3297 125.744 42.6844 125.062 40.9688 125.062ZM40.9688 133.688H10.7812C9.06621 133.686 7.42194 133.003 6.20922 131.791C4.9965 130.578 4.31437 128.934 4.3125 127.219V97.0312C4.3125 96.4594 4.53968 95.9109 4.94405 95.5065C5.34843 95.1022 5.89688 94.875 6.46875 94.875C7.04062 94.875 7.58907 95.1022 7.99345 95.5065C8.39782 95.9109 8.625 96.4594 8.625 97.0312V125.062C8.62631 126.206 9.08108 127.302 9.88955 128.11C10.698 128.919 11.7942 129.374 12.9375 129.375H40.9688C41.5406 129.375 42.0891 129.602 42.4935 130.007C42.8978 130.411 43.125 130.959 43.125 131.531C43.125 132.103 42.8978 132.652 42.4935 133.056C42.0891 133.46 41.5406 133.688 40.9688 133.688Z" fill="#011126"/>
  <path d="M116.438 69C116.438 59.6178 113.655 50.4462 108.443 42.6452C103.23 34.8441 95.8216 28.7639 87.1536 25.1735C78.4855 21.5831 68.9474 20.6436 59.7454 22.474C50.5435 24.3044 42.0909 28.8224 35.4566 35.4566C28.8224 42.0909 24.3044 50.5435 22.474 59.7454C20.6436 68.9474 21.5831 78.4855 25.1735 87.1536C28.7639 95.8216 34.8441 103.23 42.6452 108.443C50.4462 113.655 59.6178 116.438 69 116.438C81.5769 116.423 93.6345 111.421 102.528 102.528C111.421 93.6345 116.423 81.5769 116.438 69ZM69 112.125C60.4707 112.125 52.1329 109.596 45.0411 104.857C37.9492 100.119 32.4217 93.3833 29.1577 85.5032C25.8937 77.6232 25.0397 68.9522 26.7037 60.5868C28.3676 52.2213 32.4749 44.5372 38.506 38.506C44.5372 32.4749 52.2213 28.3676 60.5868 26.7037C68.9522 25.0397 77.6232 25.8937 85.5032 29.1577C93.3833 32.4217 100.119 37.9492 104.857 45.0411C109.596 52.1329 112.125 60.4707 112.125 69C112.112 80.4335 107.564 91.3951 99.4798 99.4798C91.3951 107.564 80.4335 112.112 69 112.125Z" fill="#011126"/>
  <path d="M69 28.0313C60.8972 28.0312 52.9763 30.434 46.239 34.9357C39.5017 39.4374 34.2507 45.8359 31.1498 53.3219C28.049 60.808 27.2377 69.0454 28.8185 76.9926C30.3993 84.9398 34.3012 92.2397 40.0307 97.9693C45.7603 103.699 53.0603 107.601 61.0074 109.182C68.9546 110.762 77.192 109.951 84.6781 106.85C92.1641 103.749 98.5626 98.4983 103.064 91.761C107.566 85.0238 109.969 77.1029 109.969 69C109.956 58.1382 105.636 47.7248 97.9557 40.0443C90.2752 32.3639 79.8618 28.0436 69 28.0313ZM69 105.656C61.7501 105.656 54.663 103.506 48.6349 99.4786C42.6068 95.4507 37.9085 89.7258 35.1341 83.0277C32.3596 76.3297 31.6337 68.9593 33.0481 61.8487C34.4625 54.7381 37.9537 48.2066 43.0801 43.0801C48.2066 37.9537 54.7381 34.4625 61.8487 33.0481C68.9594 31.6337 76.3297 32.3596 83.0278 35.134C89.7258 37.9085 95.4507 42.6068 99.4786 48.6349C103.506 54.663 105.656 61.7501 105.656 69C105.645 78.7185 101.78 88.0359 94.9079 94.9079C88.0359 101.78 78.7185 105.645 69 105.656Z" fill="#011126"/>
  <path d="M17.25 25.875C17.25 27.5809 17.7558 29.2484 18.7036 30.6668C19.6513 32.0852 20.9983 33.1907 22.5744 33.8435C24.1504 34.4963 25.8846 34.6671 27.5577 34.3343C29.2307 34.0015 30.7676 33.18 31.9738 31.9738C33.18 30.7676 34.0015 29.2307 34.3343 27.5577C34.6671 25.8846 34.4963 24.1504 33.8435 22.5744C33.1907 20.9983 32.0852 19.6513 30.6668 18.7036C29.2484 17.7558 27.5809 17.25 25.875 17.25C23.5883 17.2524 21.3959 18.1619 19.7789 19.7789C18.1619 21.3959 17.2524 23.5883 17.25 25.875ZM30.1875 25.875C30.1875 26.7279 29.9346 27.5617 29.4607 28.2709C28.9868 28.9801 28.3133 29.5328 27.5253 29.8592C26.7373 30.1856 25.8702 30.271 25.0337 30.1046C24.1971 29.9382 23.4287 29.5275 22.8256 28.9244C22.2225 28.3213 21.8118 27.5529 21.6454 26.7163C21.479 25.8798 21.5644 25.0127 21.8908 24.2247C22.2172 23.4367 22.7699 22.7632 23.4791 22.2893C24.1883 21.8154 25.0221 21.5625 25.875 21.5625C27.0183 21.5638 28.1145 22.0186 28.923 22.827C29.7314 23.6355 30.1862 24.7317 30.1875 25.875Z" fill="#011126"/>
</svg>